<svg id="Ebene_1" data-name="Ebene 1" xmlns="http://www.w3.org/2000/svg" viewBox="0 0 766.85 94.15"><defs><style>.cls-1{fill:#fff;}.cls-2{fill:#ffd400;}</style></defs><title>umb-mz-rgb-color-neg</title><path class="cls-1" d="M353.16,54.67c0,.65,0,1.2-.06,1.64a8.57,8.57,0,0,1-.15,1.11,3.91,3.91,0,0,1-.22.74,2.68,2.68,0,0,1-.59.71,8,8,0,0,1-1.55,1.06,15.15,15.15,0,0,1-2.49,1.12,20.7,20.7,0,0,1-3,.79,18.72,18.72,0,0,1-3.38.3,18.26,18.26,0,0,1-6.89-1.21,12.82,12.82,0,0,1-5-3.57,15.78,15.78,0,0,1-3.08-5.75,26.74,26.74,0,0,1-1-7.78,27,27,0,0,1,1.27-8.74,16.62,16.62,0,0,1,3.53-6.1,14.12,14.12,0,0,1,5.36-3.59,19.11,19.11,0,0,1,6.8-1.17,16.22,16.22,0,0,1,3,.27,15.89,15.89,0,0,1,5,1.73,7.09,7.09,0,0,1,1.41,1,4.28,4.28,0,0,1,.59.69,2.45,2.45,0,0,1,.26.74,10.76,10.76,0,0,1,.15,1.11c0,.44.06,1,.06,1.61a8.8,8.8,0,0,1-.38,3.08c-.25.59-.58.88-1,.88a2.28,2.28,0,0,1-1.36-.53c-.48-.35-1-.74-1.7-1.17a13.41,13.41,0,0,0-2.34-1.17,9,9,0,0,0-3.25-.52,6.46,6.46,0,0,0-5.66,2.85c-1.31,1.9-2,4.68-2,8.36a20.76,20.76,0,0,0,.49,4.79,10.08,10.08,0,0,0,1.45,3.48,6.07,6.07,0,0,0,2.42,2.09,7.64,7.64,0,0,0,3.38.7,8.89,8.89,0,0,0,3.38-.58A13.92,13.92,0,0,0,349,52.32c.7-.47,1.3-.91,1.77-1.3a2.09,2.09,0,0,1,1.21-.58.84.84,0,0,1,.57.19,1.3,1.3,0,0,1,.36.69,9.94,9.94,0,0,1,.2,1.31C353.13,53.15,353.16,53.83,353.16,54.67Z" transform="translate(-0.3 -0.41)"/><path class="cls-1" d="M381.67,29.48c0,.91,0,1.65-.08,2.23a6.87,6.87,0,0,1-.23,1.36,1.36,1.36,0,0,1-.39.68,1,1,0,0,1-.63.19,2,2,0,0,1-.67-.14l-.85-.28c-.32-.1-.66-.19-1-.28a5.45,5.45,0,0,0-1.25-.13,4,4,0,0,0-1.58.32,6.44,6.44,0,0,0-1.65,1,11.77,11.77,0,0,0-1.77,1.81,28.29,28.29,0,0,0-2,2.79V60a1,1,0,0,1-.23.66,1.69,1.69,0,0,1-.77.47,6.41,6.41,0,0,1-1.46.28,26.5,26.5,0,0,1-4.6,0,6.41,6.41,0,0,1-1.46-.28,1.69,1.69,0,0,1-.77-.47A1,1,0,0,1,360,60V26.35a1.12,1.12,0,0,1,.19-.66,1.42,1.42,0,0,1,.68-.48,5.63,5.63,0,0,1,1.27-.28,17.18,17.18,0,0,1,1.94-.09,18.24,18.24,0,0,1,2,.09,4.69,4.69,0,0,1,1.23.28,1.37,1.37,0,0,1,.62.48,1.12,1.12,0,0,1,.19.66v4.19a26.94,26.94,0,0,1,2.49-3.12,14.32,14.32,0,0,1,2.23-1.94,7,7,0,0,1,2.11-1,8.14,8.14,0,0,1,2.12-.29,10.27,10.27,0,0,1,1.06.06,10.9,10.9,0,0,1,1.17.19,8.49,8.49,0,0,1,1.05.3,2.43,2.43,0,0,1,.66.36,1.34,1.34,0,0,1,.31.42,3.39,3.39,0,0,1,.16.62,9.87,9.87,0,0,1,.12,1.19C381.65,27.86,381.67,28.57,381.67,29.48Z" transform="translate(-0.3 -0.41)"/><path class="cls-1" d="M417.76,42.21a3.68,3.68,0,0,1-.77,2.56,2.76,2.76,0,0,1-2.13.83H394.35a14,14,0,0,0,.51,3.91,7.32,7.32,0,0,0,1.63,3,7,7,0,0,0,2.87,1.87,12.23,12.23,0,0,0,4.21.64,23.69,23.69,0,0,0,4.38-.35,29.41,29.41,0,0,0,3.26-.8c.92-.29,1.68-.55,2.29-.79A4.18,4.18,0,0,1,415,52.7a1.19,1.19,0,0,1,.56.13,1,1,0,0,1,.38.48,3.13,3.13,0,0,1,.21,1c0,.41.06.94.06,1.57s0,1,0,1.41-.06.73-.11,1a2.4,2.4,0,0,1-.23.7,2.48,2.48,0,0,1-.4.55,4.88,4.88,0,0,1-1.34.72,21.79,21.79,0,0,1-2.79.88,39.57,39.57,0,0,1-3.89.76,32.88,32.88,0,0,1-4.68.32,24.89,24.89,0,0,1-7.87-1.13,14,14,0,0,1-5.65-3.44,14.22,14.22,0,0,1-3.38-5.81,27.48,27.48,0,0,1-1.11-8.24,26.12,26.12,0,0,1,1.17-8.09,16.84,16.84,0,0,1,3.4-6.12,14.62,14.62,0,0,1,5.41-3.83,20.82,20.82,0,0,1,14.43-.08A12.92,12.92,0,0,1,414,28.9a13.88,13.88,0,0,1,2.84,5.23,22.86,22.86,0,0,1,.9,6.56Zm-9.21-2.72a9.71,9.71,0,0,0-1.61-6.29,6.2,6.2,0,0,0-5.3-2.28,6.77,6.77,0,0,0-3.15.68,6.33,6.33,0,0,0-2.23,1.83,8.22,8.22,0,0,0-1.36,2.71,13.8,13.8,0,0,0-.55,3.35Z" transform="translate(-0.3 -0.41)"/><path class="cls-1" d="M453.89,60.14a1,1,0,0,1-.38.83,2.52,2.52,0,0,1-1.19.43,21.24,21.24,0,0,1-4.87,0,2.1,2.1,0,0,1-1.1-.43,1.1,1.1,0,0,1-.32-.83V57.46a15.26,15.26,0,0,1-4.74,3.47,13.74,13.74,0,0,1-5.9,1.25,16.41,16.41,0,0,1-4.93-.7,11.09,11.09,0,0,1-3.89-2.08A9.15,9.15,0,0,1,424,56a11.71,11.71,0,0,1-.91-4.76,10.78,10.78,0,0,1,1.16-5.12,9.32,9.32,0,0,1,3.43-3.58,16.91,16.91,0,0,1,5.68-2.1,40.94,40.94,0,0,1,7.9-.68h3.28v-2a10.82,10.82,0,0,0-.32-2.77,4.59,4.59,0,0,0-1.06-2,4.49,4.49,0,0,0-2-1.17,10.56,10.56,0,0,0-3-.37,15.35,15.35,0,0,0-4.25.53,23.68,23.68,0,0,0-3.3,1.17q-1.44.63-2.4,1.17a3.48,3.48,0,0,1-1.57.52,1.09,1.09,0,0,1-.73-.26,2,2,0,0,1-.53-.75,4.92,4.92,0,0,1-.32-1.21A9.71,9.71,0,0,1,425,31a7.44,7.44,0,0,1,.19-1.85,3,3,0,0,1,.72-1.23,7.17,7.17,0,0,1,1.85-1.2,21.75,21.75,0,0,1,3.1-1.23,28.16,28.16,0,0,1,3.87-.93,28.28,28.28,0,0,1,11.1.42,11.5,11.5,0,0,1,4.62,2.38,9.32,9.32,0,0,1,2.65,4.13,19.47,19.47,0,0,1,.83,6Zm-9.33-14.42h-3.62a19.21,19.21,0,0,0-3.93.34,7.28,7.28,0,0,0-2.64,1,4.25,4.25,0,0,0-1.5,1.64,5,5,0,0,0-.47,2.21,4.26,4.26,0,0,0,1.34,3.32,5.36,5.36,0,0,0,3.72,1.21,6.94,6.94,0,0,0,3.68-1,15.55,15.55,0,0,0,3.42-3Z" transform="translate(-0.3 -0.41)"/><path class="cls-1" d="M495.53,25.06a2.92,2.92,0,0,1,2.21.68,2.81,2.81,0,0,1,.62,2V60a1,1,0,0,1-.22.66,1.65,1.65,0,0,1-.76.47,6,6,0,0,1-1.45.28,21,21,0,0,1-2.29.1,21.39,21.39,0,0,1-2.32-.1,6.09,6.09,0,0,1-1.45-.28,1.71,1.71,0,0,1-.76-.47,1,1,0,0,1-.22-.66V32.77H473.75V48.59a8,8,0,0,0,.86,4.13,3.38,3.38,0,0,0,3.1,1.38,7,7,0,0,0,1.36-.13,8.26,8.26,0,0,0,1.08-.31c.31-.11.58-.21.79-.3a1.5,1.5,0,0,1,.58-.13.78.78,0,0,1,.44.13.93.93,0,0,1,.32.53,8.63,8.63,0,0,1,.21,1.08,13.58,13.58,0,0,1,.09,1.73,12.23,12.23,0,0,1-.19,2.52,2.76,2.76,0,0,1-.53,1.24,2.55,2.55,0,0,1-1,.68,10.42,10.42,0,0,1-1.57.49,14.65,14.65,0,0,1-1.93.32,18.18,18.18,0,0,1-2.09.12,15,15,0,0,1-4.91-.72,8.22,8.22,0,0,1-3.44-2.21,9.28,9.28,0,0,1-2-3.76,19.73,19.73,0,0,1-.64-5.36V32.77h-4c-.48,0-.84-.3-1.09-.89a8.09,8.09,0,0,1-.38-3,16.08,16.08,0,0,1,.09-1.85,4.21,4.21,0,0,1,.29-1.19,1.4,1.4,0,0,1,.47-.62,1.22,1.22,0,0,1,.66-.19h4V17.55a1.16,1.16,0,0,1,.21-.68,1.59,1.59,0,0,1,.75-.51,5.89,5.89,0,0,1,1.47-.3c.62-.06,1.38-.1,2.29-.1s1.7,0,2.32.1a5.61,5.61,0,0,1,1.46.3,1.7,1.7,0,0,1,.75.51,1.12,1.12,0,0,1,.23.68v7.51Zm3.59-10.12c0,1.92-.39,3.24-1.17,4S495.72,20,493.61,20,490,19.65,489.28,19s-1.11-2-1.11-3.82.38-3.24,1.15-4S491.54,10,493.68,10s3.55.35,4.31,1.07S499.12,13.11,499.12,14.94Z" transform="translate(-0.3 -0.41)"/><path class="cls-1" d="M539.7,60a1,1,0,0,1-.23.66,1.67,1.67,0,0,1-.75.47,6.08,6.08,0,0,1-1.46.28,20.71,20.71,0,0,1-2.28.1,21.26,21.26,0,0,1-2.32-.1,6.19,6.19,0,0,1-1.46-.28,1.67,1.67,0,0,1-.75-.47,1,1,0,0,1-.23-.66V40.81a16.11,16.11,0,0,0-.36-3.85,7.73,7.73,0,0,0-1-2.4A4.69,4.69,0,0,0,527.07,33a5.56,5.56,0,0,0-2.51-.55,6.23,6.23,0,0,0-3.66,1.33A19.64,19.64,0,0,0,517,37.64V60a1,1,0,0,1-.22.66,1.68,1.68,0,0,1-.78.47,6.2,6.2,0,0,1-1.45.28,20.74,20.74,0,0,1-2.3.1,21.06,21.06,0,0,1-2.31-.1,6.42,6.42,0,0,1-1.45-.28,1.69,1.69,0,0,1-.77-.47,1,1,0,0,1-.23-.66V26.35a1.12,1.12,0,0,1,.19-.66,1.37,1.37,0,0,1,.68-.48,5.66,5.66,0,0,1,1.26-.28,17.5,17.5,0,0,1,1.95-.09,18.36,18.36,0,0,1,2,.09,4.69,4.69,0,0,1,1.23.28,1.49,1.49,0,0,1,.62.48,1.19,1.19,0,0,1,.19.66v3.89a21,21,0,0,1,5.68-4.53,12.81,12.81,0,0,1,6-1.52,13.3,13.3,0,0,1,5.8,1.14A10.09,10.09,0,0,1,537,28.41a12.48,12.48,0,0,1,2.1,4.54,27,27,0,0,1,.64,6.27Z" transform="translate(-0.3 -0.41)"/><path class="cls-1" d="M579.38,28.69a6.66,6.66,0,0,1-.41,2.68q-.42.87-1,.87h-4a5.28,5.28,0,0,1,1.19,2.06,7.91,7.91,0,0,1,.36,2.39,13.18,13.18,0,0,1-1,5.23,10.35,10.35,0,0,1-2.81,3.85,12.45,12.45,0,0,1-4.42,2.38,19.27,19.27,0,0,1-5.76.81,12.14,12.14,0,0,1-3.1-.39,7.76,7.76,0,0,1-2.26-.93,5.75,5.75,0,0,0-.81,1.17,3.21,3.21,0,0,0-.36,1.51,2.15,2.15,0,0,0,1,1.8,4.94,4.94,0,0,0,2.7.77l8.19.3A20.34,20.34,0,0,1,572,54a10.92,10.92,0,0,1,3.78,2,8.48,8.48,0,0,1,2.34,3,9.62,9.62,0,0,1,.81,4,10.44,10.44,0,0,1-1.1,4.7,10.63,10.63,0,0,1-3.28,3.83,17.06,17.06,0,0,1-5.49,2.57,28.3,28.3,0,0,1-7.73.94,33.7,33.7,0,0,1-7.34-.68,15.8,15.8,0,0,1-5-1.89,7.66,7.66,0,0,1-2.84-2.88,7.79,7.79,0,0,1-.88-3.69,8.38,8.38,0,0,1,.32-2.37,9.1,9.1,0,0,1,.94-2.18,11.68,11.68,0,0,1,1.53-2,17,17,0,0,1,2.08-1.81,6.35,6.35,0,0,1-2.51-2.36,6.27,6.27,0,0,1-.89-3.27,8.18,8.18,0,0,1,1-4,12.84,12.84,0,0,1,2.64-3.31,10,10,0,0,1-2.11-3.17,11.69,11.69,0,0,1-.8-4.61,12.76,12.76,0,0,1,1-5.26,11.28,11.28,0,0,1,2.89-3.93,12.66,12.66,0,0,1,4.42-2.45,17.83,17.83,0,0,1,5.66-.85,24.72,24.72,0,0,1,3,.18,21.89,21.89,0,0,1,2.7.53H578c.42,0,.77.28,1,.83A7,7,0,0,1,579.38,28.69Zm-10,34.85a3,3,0,0,0-1.36-2.61,7.1,7.1,0,0,0-3.73-1l-6.76-.19A9.79,9.79,0,0,0,556,61.14a8.1,8.1,0,0,0-.94,1.27,3.55,3.55,0,0,0-.47,1.17,5.52,5.52,0,0,0-.12,1.17,3.12,3.12,0,0,0,1.91,2.87,12,12,0,0,0,5.38,1,12.93,12.93,0,0,0,3.62-.44A6.86,6.86,0,0,0,567.75,67a4.18,4.18,0,0,0,1.29-1.6A4.76,4.76,0,0,0,569.41,63.54Zm-2.22-26.89a5.25,5.25,0,0,0-5.78-5.73,5.85,5.85,0,0,0-2.45.47,4.8,4.8,0,0,0-1.76,1.28,5.28,5.28,0,0,0-1,1.89,7.35,7.35,0,0,0-.34,2.25,5.45,5.45,0,0,0,1.51,4.06,5.72,5.72,0,0,0,4.19,1.49A6.12,6.12,0,0,0,564,41.9a4.79,4.79,0,0,0,1.76-1.24,5.39,5.39,0,0,0,1.06-1.83A6.65,6.65,0,0,0,567.19,36.65Z" transform="translate(-0.3 -0.41)"/><path class="cls-1" d="M636.05,25.06a2.92,2.92,0,0,1,2.21.68,2.81,2.81,0,0,1,.63,2V60a1,1,0,0,1-.23.66,1.65,1.65,0,0,1-.76.47,6,6,0,0,1-1.45.28,21,21,0,0,1-2.28.1,21.46,21.46,0,0,1-2.33-.1,6.09,6.09,0,0,1-1.45-.28,1.77,1.77,0,0,1-.76-.47,1,1,0,0,1-.22-.66V32.77H614.27V48.59a7.86,7.86,0,0,0,.87,4.13,3.36,3.36,0,0,0,3.09,1.38,6.9,6.9,0,0,0,1.36-.13,8.26,8.26,0,0,0,1.08-.31c.31-.11.58-.21.79-.3a1.5,1.5,0,0,1,.59-.13.77.77,0,0,1,.43.13.88.88,0,0,1,.32.53A7.12,7.12,0,0,1,623,55a13.58,13.58,0,0,1,.09,1.73,13.15,13.15,0,0,1-.18,2.52,3,3,0,0,1-.53,1.24,2.67,2.67,0,0,1-1,.68,10.42,10.42,0,0,1-1.57.49,14.65,14.65,0,0,1-1.93.32,18.18,18.18,0,0,1-2.09.12,15,15,0,0,1-4.91-.72,8.28,8.28,0,0,1-3.44-2.21,9.28,9.28,0,0,1-2-3.76,20.14,20.14,0,0,1-.64-5.36V32.77h-4c-.48,0-.84-.3-1.09-.89a8.09,8.09,0,0,1-.38-3,16.08,16.08,0,0,1,.09-1.85,4.59,4.59,0,0,1,.29-1.19,1.4,1.4,0,0,1,.47-.62,1.22,1.22,0,0,1,.66-.19h4V17.55a1.16,1.16,0,0,1,.21-.68,1.59,1.59,0,0,1,.75-.51,5.88,5.88,0,0,1,1.48-.3c.61-.06,1.37-.1,2.28-.1s1.71,0,2.32.1a5.61,5.61,0,0,1,1.46.3,1.7,1.7,0,0,1,.75.51,1.12,1.12,0,0,1,.23.68v7.51Zm3.59-10.12c0,1.92-.39,3.24-1.17,4S636.24,20,634.13,20s-3.58-.35-4.32-1.05-1.12-2-1.12-3.82.39-3.24,1.15-4S632.06,10,634.2,10s3.55.35,4.31,1.07S639.64,13.11,639.64,14.94Z" transform="translate(-0.3 -0.41)"/><path class="cls-1" d="M701.63,60a1,1,0,0,1-.23.66,1.67,1.67,0,0,1-.75.47,6.1,6.1,0,0,1-1.44.28,20.74,20.74,0,0,1-2.3.1,21.17,21.17,0,0,1-2.34-.1,6.41,6.41,0,0,1-1.46-.28,1.56,1.56,0,0,1-.75-.47,1.08,1.08,0,0,1-.21-.66v-20a14,14,0,0,0-.32-3.09,7.24,7.24,0,0,0-1-2.4A4.72,4.72,0,0,0,689.19,33a5,5,0,0,0-2.4-.55,5.66,5.66,0,0,0-3.44,1.33,23.07,23.07,0,0,0-3.77,3.85V60a1,1,0,0,1-.23.66,1.69,1.69,0,0,1-.77.47,6.41,6.41,0,0,1-1.46.28,20.2,20.2,0,0,1-2.26.1,20.74,20.74,0,0,1-2.3-.1,6.41,6.41,0,0,1-1.46-.28,1.69,1.69,0,0,1-.77-.47,1,1,0,0,1-.23-.66v-20a14,14,0,0,0-.32-3.09,7.44,7.44,0,0,0-1-2.4A4.48,4.48,0,0,0,667.16,33a5,5,0,0,0-2.38-.55,5.7,5.7,0,0,0-3.48,1.33,21.92,21.92,0,0,0-3.73,3.85V60a1,1,0,0,1-.23.66,1.69,1.69,0,0,1-.77.47,6.41,6.41,0,0,1-1.46.28,26.5,26.5,0,0,1-4.6,0,6.41,6.41,0,0,1-1.46-.28,1.69,1.69,0,0,1-.77-.47,1,1,0,0,1-.23-.66V26.35a1.12,1.12,0,0,1,.19-.66,1.42,1.42,0,0,1,.68-.48,5.66,5.66,0,0,1,1.26-.28,17.5,17.5,0,0,1,2-.09,18.36,18.36,0,0,1,2,.09,4.69,4.69,0,0,1,1.23.28,1.43,1.43,0,0,1,.62.48,1.12,1.12,0,0,1,.19.66v3.89a21.93,21.93,0,0,1,5.57-4.53,11.93,11.93,0,0,1,5.79-1.52,14.76,14.76,0,0,1,3.74.44,10.74,10.74,0,0,1,3,1.24,9.56,9.56,0,0,1,2.24,1.95,11.27,11.27,0,0,1,1.59,2.53,27.88,27.88,0,0,1,3-2.79,17.64,17.64,0,0,1,2.87-1.91,13.43,13.43,0,0,1,2.83-1.1,11.73,11.73,0,0,1,2.89-.36,12.73,12.73,0,0,1,5.67,1.14A9.83,9.83,0,0,1,699,28.41,12.37,12.37,0,0,1,701,33a24.58,24.58,0,0,1,.6,5.52Z" transform="translate(-0.3 -0.41)"/><path class="cls-1" d="M741.29,42.21a3.68,3.68,0,0,1-.77,2.56,2.76,2.76,0,0,1-2.13.83H717.88a14,14,0,0,0,.51,3.91,7.32,7.32,0,0,0,1.63,3,7,7,0,0,0,2.87,1.87,12.23,12.23,0,0,0,4.21.64,23.69,23.69,0,0,0,4.38-.35,29.41,29.41,0,0,0,3.26-.8c.92-.29,1.68-.55,2.29-.79a4.18,4.18,0,0,1,1.47-.36,1.16,1.16,0,0,1,.56.13,1,1,0,0,1,.38.48,3.13,3.13,0,0,1,.21,1c0,.41.06.94.06,1.57s0,1,0,1.41-.06.73-.11,1a2.4,2.4,0,0,1-.23.7,2.48,2.48,0,0,1-.4.55,4.88,4.88,0,0,1-1.34.72,21.79,21.79,0,0,1-2.79.88,39.57,39.57,0,0,1-3.89.76,32.88,32.88,0,0,1-4.68.32,24.89,24.89,0,0,1-7.87-1.13,14,14,0,0,1-5.65-3.44,14.22,14.22,0,0,1-3.38-5.81,27.48,27.48,0,0,1-1.11-8.24,26.12,26.12,0,0,1,1.17-8.09,16.84,16.84,0,0,1,3.4-6.12,14.62,14.62,0,0,1,5.41-3.83,20.82,20.82,0,0,1,14.43-.08,12.92,12.92,0,0,1,4.92,3.46,13.88,13.88,0,0,1,2.84,5.23,22.86,22.86,0,0,1,.9,6.56Zm-9.21-2.72a9.71,9.71,0,0,0-1.61-6.29,6.2,6.2,0,0,0-5.3-2.28,6.77,6.77,0,0,0-3.15.68,6.33,6.33,0,0,0-2.23,1.83,8.22,8.22,0,0,0-1.36,2.71,13.8,13.8,0,0,0-.55,3.35Z" transform="translate(-0.3 -0.41)"/><path class="cls-1" d="M767.15,21.85a10.66,10.66,0,0,1-.83,4.19A10.41,10.41,0,0,1,764,29.43a10.81,10.81,0,0,1-7.62,3.11,11.06,11.06,0,0,1-4.28-.81,9.89,9.89,0,0,1-5.57-5.56,11.19,11.19,0,0,1-.79-4.27,10.55,10.55,0,0,1,6.52-9.82,10.91,10.91,0,0,1,4.22-.82,11.25,11.25,0,0,1,4.28.8,9.83,9.83,0,0,1,5.57,5.55A11.07,11.07,0,0,1,767.15,21.85Zm-2.46.16a9.73,9.73,0,0,0-.61-3.53,8.33,8.33,0,0,0-1.71-2.72,7.45,7.45,0,0,0-2.6-1.73,8.71,8.71,0,0,0-3.26-.61,8.45,8.45,0,0,0-3.4.66,7.93,7.93,0,0,0-4.29,4.47,8.71,8.71,0,0,0-.59,3.24,9.56,9.56,0,0,0,.61,3.5A8,8,0,0,0,750.55,28a7.5,7.5,0,0,0,2.6,1.75,8.53,8.53,0,0,0,3.26.62,8.37,8.37,0,0,0,3.41-.67,7.9,7.9,0,0,0,4.28-4.46A8.92,8.92,0,0,0,764.69,22Zm-3.23,5a.46.46,0,0,1,0,.21c0,.06-.09.11-.2.14a3.45,3.45,0,0,1-.47.06c-.2,0-.47,0-.82,0a7.48,7.48,0,0,1-.75,0,1.33,1.33,0,0,1-.46-.09.73.73,0,0,1-.28-.19,1.08,1.08,0,0,1-.15-.34l-.57-1.89a3.27,3.27,0,0,0-.78-1.41,2,2,0,0,0-1.35-.4h-.74v3.83a.41.41,0,0,1-.24.41,3,3,0,0,1-1.08.11,3.42,3.42,0,0,1-1.12-.11.4.4,0,0,1-.27-.41V17.12a1.41,1.41,0,0,1,.3-.95,1.16,1.16,0,0,1,.9-.34h3.15a9.2,9.2,0,0,1,1.93.19,4.26,4.26,0,0,1,1.42.6,2.83,2.83,0,0,1,.89,1,3.31,3.31,0,0,1,.3,1.46,2.8,2.8,0,0,1-.71,2,4,4,0,0,1-1.92,1,3.58,3.58,0,0,1,1.23.74,4.28,4.28,0,0,1,1,1.56l.65,1.75A3.86,3.86,0,0,1,761.46,27Zm-3.39-7.57a1.79,1.79,0,0,0-.08-.57,1,1,0,0,0-.31-.48,1.65,1.65,0,0,0-.62-.32,3.62,3.62,0,0,0-1-.11h-1.25V21h1.2a2.26,2.26,0,0,0,1.59-.44A1.55,1.55,0,0,0,758.07,19.44Z" transform="translate(-0.3 -0.41)"/><g id="Balken_Pantone_C" data-name="Balken Pantone C"><path class="cls-2" d="M283.84,93.46c0,.66-.44,1.09-1.31,1.09H1.62A1.22,1.22,0,0,1,.3,93.46V78.79c0-.66.44-1.1,1.32-1.1H282.53a1.23,1.23,0,0,1,1.31,1.1V93.46Z" transform="translate(-0.3 -0.41)"/></g><path class="cls-1" d="M72.78.41c-4,0-6.57.87-7.67,2.18a.81.81,0,0,0-.22.66V37.41c0,7.22-5.25,12.92-21.67,12.92S21.54,44.85,21.54,37.41V3.25a.81.81,0,0,0-.22-.66C20.23,1.28,17.6.41,13.66.41S7.09,1.28,6,2.59a.81.81,0,0,0-.22.66V37.41c0,15.11,10.29,26.27,37.44,26.27S80.66,52.52,80.66,37.41V3.25a.81.81,0,0,0-.22-.66C79.56,1.28,76.72.41,72.78.41Z" transform="translate(-0.3 -0.41)"/><path class="cls-1" d="M184.66,1.72c-4.82-2-12.48-.22-15.77,3.28l-26,24.53L116.78,4.78C113.5,1.28,105.84-.47,101,1.5a1.21,1.21,0,0,0-.66,1.09V60.18a.81.81,0,0,0,.22.66c1.1,1.31,3.72,2.18,7.66,2.18s6.57-.87,7.67-2.18a.81.81,0,0,0,.22-.66V24.71l24.08,22.77a3.52,3.52,0,0,0,5,.22l24.08-22.77V60.4a.78.78,0,0,0,.22.65c1.1,1.32,3.72,2.19,7.66,2.19h.22c3.94,0,6.57-.87,7.67-2.19a.8.8,0,0,0,.21-.65V2.81A1.2,1.2,0,0,0,184.66,1.72Z" transform="translate(-0.3 -0.41)"/><path class="cls-1" d="M273.55,29.74a19.53,19.53,0,0,0,2.85-10.29c0-10.29-7.45-18.17-17.08-18.17h-53A1.23,1.23,0,0,0,205,2.38V60.62c0,.65.44,1.09,1.31,1.09h56c9.64,0,17.08-7.66,17.08-18.17A18.34,18.34,0,0,0,273.55,29.74Zm-53-15.54H258c4.16,0,4.37,4.6,4.37,5.47s-.21,5.48-4.37,5.48H220.57Zm40.5,35h-40.5V38.28h40.5c4.16,0,4.38,4.6,4.38,5.48S265.23,49.23,261.07,49.23Z" transform="translate(-0.3 -0.41)"/></svg>